<svg xmlns="http://www.w3.org/2000/svg" viewBox="0 0 500 700" preserveAspectRatio="xMidYMid slice">
  <defs>
    <linearGradient id="bg3" x1="0" y1="0" x2="0" y2="1">
      <stop offset="0%" stop-color="#FFD487"/>
      <stop offset="40%" stop-color="#FF8C3A"/>
      <stop offset="100%" stop-color="#9C3A12"/>
    </linearGradient>
    <radialGradient id="glow3" cx="0.5" cy="0.55" r="0.6">
      <stop offset="0%" stop-color="#FFF7DA"/>
      <stop offset="60%" stop-color="#FFB04A" stop-opacity="0.4"/>
      <stop offset="100%" stop-color="#FFB04A" stop-opacity="0"/>
    </radialGradient>
  </defs>
  <rect width="500" height="700" fill="url(#bg3)"/>
  <rect x="0" y="0" width="500" height="700" fill="url(#glow3)"/>
  <!-- kitchen cabinets -->
  <rect x="0" y="0" width="500" height="100" fill="#F4D29A" opacity="0.85"/>
  <rect x="20" y="20" width="60" height="60" rx="4" fill="#E4BB80" opacity="0.85"/>
  <rect x="100" y="20" width="60" height="60" rx="4" fill="#E4BB80" opacity="0.85"/>
  <rect x="340" y="20" width="60" height="60" rx="4" fill="#E4BB80" opacity="0.85"/>
  <rect x="420" y="20" width="60" height="60" rx="4" fill="#E4BB80" opacity="0.85"/>
  <!-- stove -->
  <rect x="160" y="350" width="180" height="240" fill="#D8D3CC" opacity="0.9"/>
  <rect x="170" y="540" width="160" height="50" fill="#B5AFA8"/>
  <circle cx="200" cy="420" r="14" fill="#3A332E"/>
  <circle cx="240" cy="420" r="14" fill="#3A332E"/>
  <circle cx="280" cy="420" r="14" fill="#3A332E"/>
  <circle cx="320" cy="420" r="14" fill="#3A332E"/>
  <!-- big flames behind stove -->
  <path d="M 110 360 C 100 230 170 200 175 270 C 190 200 240 180 235 280 C 260 200 300 200 290 290 C 320 220 350 230 340 310 C 370 260 390 290 380 360 Z" fill="#FFC25E"/>
  <path d="M 160 360 C 155 280 195 260 195 300 C 210 240 250 260 240 310 C 260 270 290 280 280 340 C 300 310 320 330 310 360 Z" fill="#FFE49B"/>
  <path d="M 200 350 C 210 310 240 320 235 340 Z" fill="#FFF7DA"/>
  <!-- floor reflection -->
  <rect x="0" y="610" width="500" height="90" fill="#7C2D0E" opacity="0.7"/>
  <!-- chef hat (massive, in corner) -->
  <ellipse cx="400" cy="540" rx="60" ry="40" fill="#FFFFFF"/>
  <ellipse cx="370" cy="525" rx="28" ry="22" fill="#FFFFFF"/>
  <ellipse cx="430" cy="525" rx="28" ry="22" fill="#FFFFFF"/>
  <ellipse cx="400" cy="500" rx="26" ry="22" fill="#FFFFFF"/>
  <rect x="355" y="565" width="90" height="22" fill="#E9DFD0"/>
  <!-- cat head -->
  <ellipse cx="400" cy="630" rx="62" ry="50" fill="#9D8975"/>
  <path d="M 348 600 L 340 565 L 372 585 Z" fill="#9D8975"/>
  <path d="M 428 600 L 458 565 L 452 590 Z" fill="#9D8975"/>
  <circle cx="380" cy="622" r="5" fill="#1A1614"/>
  <circle cx="420" cy="622" r="5" fill="#1A1614"/>
  <path d="M 393 650 Q 400 658 407 650" stroke="#1A1614" stroke-width="2.5" fill="none"/>
</svg>
